# xmcd
# 
# Track frame offsets:
#     150
#     21790
#     38755
#     64780
#     80662
#     101347
#     122087
#     138430
#     156130
#     183075
#     197740
#     219992
#     244850
#     265942
# 
# Disc length: 3787
# 
# Revision: 1
# Processed by: cddbd v1.5.2PL0 Copyright (c) Steve Scherf et al.
# Submitted via: fre:ac v1.0.17
# 
DISCID=bb0ec90e
DTITLE=Marlies Claasen - Painting The Sun
DYEAR=2003
DGENRE=Country
TTITLE0=You're Still In My Heart
TTITLE1=Change Into a Part Of Me
TTITLE2=Italian Nights
TTITLE3=Loving The Dream
TTITLE4=Painting The Sun
TTITLE5=The Magic Of Us
TTITLE6=Dear Old Friend
TTITLE7=The Top Is Down
TTITLE8=Just Come To Me
TTITLE9=Free
TTITLE10=Daya
TTITLE11=Zomerland
TTITLE12=Als We Strakjes Ouder Zijn
TTITLE13=Er Is Geen Lied Zonder De Liefde
EXTD=
EXTT0=
EXTT1=
EXTT2=
EXTT3=
EXTT4=
EXTT5=
EXTT6=
EXTT7=
EXTT8=
EXTT9=
EXTT10=
EXTT11=
EXTT12=
EXTT13=
PLAYORDER=
